<svg width="688" height="902" viewBox="0 0 688 902" fill="none" xmlns="http://www.w3.org/2000/svg">
<g filter="url(#filter0_dd_2_477)">
<path d="M56.3866 70.7522C56.3866 61.9157 63.55 54.7522 72.3866 54.7522H624.887C633.723 54.7522 640.887 61.9157 640.887 70.7522V818.082C640.887 826.919 633.723 834.082 624.887 834.082H72.3866C63.5501 834.082 56.3866 826.919 56.3866 818.082V70.7522Z" fill="white"/>
<path d="M72.3866 55.2522H624.887C633.447 55.2522 640.387 62.1918 640.387 70.7522V818.082C640.387 826.643 633.447 833.582 624.887 833.582H72.3866C63.8262 833.582 56.8866 826.643 56.8866 818.082V70.7522C56.8866 62.1918 63.8262 55.2522 72.3866 55.2522Z" stroke="#E5E7EB"/>
<path d="M551.512 792.58H617.891C620.929 792.58 623.391 795.043 623.391 798.08V811.08C623.391 814.118 620.929 816.58 617.891 816.58H551.512C548.474 816.58 546.012 814.118 546.012 811.08V798.08L546.018 797.797C546.166 794.891 548.569 792.58 551.512 792.58Z" fill="#EEF2FF"/>
<path d="M551.512 792.58H617.891C620.929 792.58 623.391 795.043 623.391 798.08V811.08C623.391 814.118 620.929 816.58 617.891 816.58H551.512C548.474 816.58 546.012 814.118 546.012 811.08V798.08L546.018 797.797C546.166 794.891 548.569 792.58 551.512 792.58Z" stroke="#C7D2FE"/>
<path d="M555.691 807.58H554.767L557.438 800.308H558.347L561.017 807.58H560.094L557.921 801.458H557.864L555.691 807.58ZM556.031 804.739H559.753V805.521H556.031V804.739ZM563.031 800.308V807.58H562.15V800.308H563.031ZM573.745 803.944C573.745 804.711 573.607 805.374 573.33 805.933C573.053 806.491 572.673 806.922 572.19 807.225C571.707 807.528 571.155 807.68 570.535 807.68C569.915 807.68 569.363 807.528 568.88 807.225C568.397 806.922 568.017 806.491 567.74 805.933C567.463 805.374 567.325 804.711 567.325 803.944C567.325 803.177 567.463 802.514 567.74 801.955C568.017 801.397 568.397 800.966 568.88 800.663C569.363 800.36 569.915 800.208 570.535 800.208C571.155 800.208 571.707 800.36 572.19 800.663C572.673 800.966 573.053 801.397 573.33 801.955C573.607 802.514 573.745 803.177 573.745 803.944ZM572.893 803.944C572.893 803.314 572.788 802.783 572.577 802.35C572.369 801.916 572.086 801.588 571.728 801.366C571.373 801.143 570.976 801.032 570.535 801.032C570.095 801.032 569.696 801.143 569.338 801.366C568.983 801.588 568.7 801.916 568.49 802.35C568.281 802.783 568.177 803.314 568.177 803.944C568.177 804.574 568.281 805.105 568.49 805.538C568.7 805.972 568.983 806.3 569.338 806.522C569.696 806.745 570.095 806.856 570.535 806.856C570.976 806.856 571.373 806.745 571.728 806.522C572.086 806.3 572.369 805.972 572.577 805.538C572.788 805.105 572.893 804.574 572.893 803.944ZM575.113 809.626V802.126H575.922V802.992H576.022C576.083 802.898 576.168 802.777 576.277 802.63C576.389 802.481 576.547 802.348 576.753 802.232C576.962 802.114 577.243 802.055 577.598 802.055C578.058 802.055 578.463 802.17 578.813 802.399C579.163 802.629 579.437 802.954 579.633 803.376C579.83 803.797 579.928 804.294 579.928 804.867C579.928 805.445 579.83 805.946 579.633 806.369C579.437 806.791 579.164 807.118 578.816 807.35C578.468 807.579 578.067 807.694 577.613 807.694C577.262 807.694 576.982 807.636 576.771 807.52C576.56 807.402 576.398 807.268 576.285 807.119C576.171 806.967 576.083 806.842 576.022 806.742H575.951V809.626H575.113ZM575.936 804.853C575.936 805.265 575.997 805.628 576.118 805.943C576.238 806.256 576.415 806.501 576.647 806.678C576.879 806.854 577.163 806.941 577.499 806.941C577.849 806.941 578.142 806.849 578.376 806.664C578.613 806.477 578.79 806.226 578.909 805.911C579.03 805.594 579.09 805.241 579.09 804.853C579.09 804.47 579.031 804.124 578.912 803.816C578.796 803.506 578.62 803.261 578.383 803.081C578.149 802.899 577.854 802.808 577.499 802.808C577.158 802.808 576.872 802.894 576.64 803.067C576.408 803.237 576.232 803.476 576.114 803.784C575.996 804.09 575.936 804.446 575.936 804.853ZM583.579 802.126V802.836H580.752V802.126H583.579ZM581.576 800.819H582.414V806.018C582.414 806.255 582.448 806.432 582.517 806.551C582.588 806.667 582.678 806.745 582.787 806.785C582.898 806.823 583.015 806.842 583.138 806.842C583.231 806.842 583.306 806.837 583.365 806.828C583.425 806.816 583.472 806.806 583.508 806.799L583.678 807.552C583.621 807.573 583.542 807.595 583.44 807.616C583.338 807.64 583.209 807.651 583.053 807.651C582.816 807.651 582.584 807.6 582.357 807.499C582.132 807.397 581.945 807.242 581.796 807.033C581.649 806.825 581.576 806.562 581.576 806.245V800.819ZM584.839 807.58V802.126H585.677V807.58H584.839ZM585.265 801.217C585.102 801.217 584.961 801.161 584.843 801.05C584.727 800.939 584.669 800.805 584.669 800.649C584.669 800.492 584.727 800.359 584.843 800.247C584.961 800.136 585.102 800.08 585.265 800.08C585.429 800.08 585.568 800.136 585.684 800.247C585.803 800.359 585.862 800.492 585.862 800.649C585.862 800.805 585.803 800.939 585.684 801.05C585.568 801.161 585.429 801.217 585.265 801.217ZM587.212 807.58V802.126H588.022V802.978H588.093C588.207 802.687 588.39 802.461 588.643 802.3C588.897 802.136 589.201 802.055 589.556 802.055C589.916 802.055 590.215 802.136 590.454 802.3C590.696 802.461 590.884 802.687 591.019 802.978H591.076C591.216 802.696 591.425 802.473 591.704 802.307C591.984 802.139 592.319 802.055 592.709 802.055C593.197 802.055 593.596 802.207 593.906 802.513C594.216 802.816 594.371 803.288 594.371 803.93V807.58H593.533V803.93C593.533 803.527 593.423 803.24 593.203 803.067C592.983 802.894 592.724 802.808 592.425 802.808C592.042 802.808 591.745 802.924 591.534 803.156C591.323 803.385 591.218 803.676 591.218 804.029V807.58H590.366V803.845C590.366 803.534 590.265 803.285 590.064 803.095C589.863 802.904 589.603 802.808 589.286 802.808C589.068 802.808 588.865 802.866 588.675 802.982C588.488 803.098 588.337 803.259 588.221 803.465C588.107 803.668 588.05 803.904 588.05 804.171V807.58H587.212ZM595.904 807.58V802.126H596.742V807.58H595.904ZM596.33 801.217C596.166 801.217 596.026 801.161 595.907 801.05C595.791 800.939 595.733 800.805 595.733 800.649C595.733 800.492 595.791 800.359 595.907 800.247C596.026 800.136 596.166 800.08 596.33 800.08C596.493 800.08 596.633 800.136 596.749 800.247C596.867 800.359 596.926 800.492 596.926 800.649C596.926 800.805 596.867 800.939 596.749 801.05C596.633 801.161 596.493 801.217 596.33 801.217ZM598.12 807.58V806.941L601.217 802.964V802.907H598.22V802.126H602.297V802.793L599.285 806.742V806.799H602.396V807.58H598.12ZM605.818 807.694C605.292 807.694 604.839 807.578 604.457 807.346C604.079 807.112 603.786 806.785 603.58 806.366C603.377 805.944 603.275 805.454 603.275 804.896C603.275 804.337 603.377 803.845 603.58 803.418C603.786 802.99 604.073 802.656 604.44 802.417C604.809 802.176 605.24 802.055 605.732 802.055C606.016 802.055 606.297 802.102 606.574 802.197C606.851 802.292 607.103 802.445 607.33 802.658C607.558 802.869 607.739 803.149 607.874 803.497C608.009 803.845 608.076 804.273 608.076 804.782V805.137H603.872V804.413H607.224C607.224 804.105 607.162 803.83 607.039 803.589C606.918 803.347 606.746 803.157 606.521 803.017C606.298 802.877 606.035 802.808 605.732 802.808C605.398 802.808 605.11 802.89 604.866 803.056C604.624 803.22 604.439 803.433 604.308 803.695C604.178 803.958 604.113 804.24 604.113 804.541V805.024C604.113 805.435 604.184 805.785 604.326 806.071C604.47 806.355 604.671 806.572 604.926 806.721C605.182 806.868 605.479 806.941 605.818 806.941C606.038 806.941 606.237 806.91 606.414 806.849C606.594 806.785 606.749 806.69 606.879 806.565C607.01 806.437 607.11 806.278 607.181 806.089L607.991 806.316C607.906 806.591 607.762 806.832 607.561 807.041C607.36 807.247 607.111 807.408 606.815 807.524C606.519 807.637 606.187 807.694 605.818 807.694ZM611.411 807.694C610.956 807.694 610.555 807.579 610.207 807.35C609.859 807.118 609.586 806.791 609.39 806.369C609.193 805.946 609.095 805.445 609.095 804.867C609.095 804.294 609.193 803.797 609.39 803.376C609.586 802.954 609.86 802.629 610.21 802.399C610.561 802.17 610.965 802.055 611.425 802.055C611.78 802.055 612.06 802.114 612.266 802.232C612.475 802.348 612.633 802.481 612.742 802.63C612.854 802.777 612.94 802.898 613.001 802.992H613.072V800.308H613.911V807.58H613.101V806.742H613.001C612.94 806.842 612.852 806.967 612.739 807.119C612.625 807.268 612.463 807.402 612.252 807.52C612.041 807.636 611.761 807.694 611.411 807.694ZM611.524 806.941C611.86 806.941 612.144 806.854 612.376 806.678C612.608 806.501 612.785 806.256 612.906 805.943C613.026 805.628 613.087 805.265 613.087 804.853C613.087 804.446 613.028 804.09 612.909 803.784C612.791 803.476 612.616 803.237 612.384 803.067C612.152 802.894 611.865 802.808 611.524 802.808C611.169 802.808 610.873 802.899 610.636 803.081C610.402 803.261 610.226 803.506 610.107 803.816C609.991 804.124 609.933 804.47 609.933 804.853C609.933 805.241 609.992 805.594 610.111 805.911C610.232 806.226 610.409 806.477 610.644 806.664C610.88 806.849 611.174 806.941 611.524 806.941Z" fill="#4338CA"/>
<path d="M89.3866 714.705C89.3866 711.392 92.0729 708.705 95.3866 708.705H491.137C494.45 708.705 497.137 711.392 497.137 714.705V726.025C497.137 729.339 494.45 732.025 491.137 732.025H95.3866C92.0729 732.025 89.3866 729.339 89.3866 726.025V714.705Z" fill="#E2E8F0"/>
<path d="M89.3866 683.612C89.3866 680.298 92.0729 677.612 95.3866 677.612H520.267C523.58 677.612 526.267 680.298 526.267 683.612V694.932C526.267 698.245 523.58 700.932 520.267 700.932H95.3866C92.0729 700.932 89.3866 698.245 89.3866 694.932V683.612Z" fill="#E2E8F0"/>
<path d="M89.3866 652.518C89.3866 649.204 92.0729 646.518 95.3866 646.518H549.387C552.7 646.518 555.387 649.204 555.387 652.518V663.838C555.387 667.152 552.7 669.838 549.387 669.838H95.3866C92.0729 669.838 89.3866 667.152 89.3866 663.838V652.518Z" fill="#E2E8F0"/>
<path d="M89.3866 605.877C89.3866 602.564 92.0729 599.877 95.3866 599.877H287.267C290.58 599.877 293.267 602.564 293.267 605.877V624.957C293.267 628.271 290.58 630.957 287.267 630.957H95.3866C92.0729 630.957 89.3866 628.271 89.3866 624.957V605.877Z" fill="#E0E7FF"/>
<path d="M141.887 543.69C141.887 540.376 144.573 537.69 147.887 537.69H195.887C199.2 537.69 201.887 540.376 201.887 543.69C201.887 547.003 199.2 549.69 195.887 549.69H147.887C144.573 549.69 141.887 547.003 141.887 543.69Z" fill="#E0E7FF"/>
<path d="M209.887 543.69C209.887 540.376 212.573 537.69 215.887 537.69H273.887C277.2 537.69 279.887 540.376 279.887 543.69C279.887 547.003 277.2 549.69 273.887 549.69H215.887C212.573 549.69 209.887 547.003 209.887 543.69Z" fill="#E0E7FF"/>
<path d="M287.887 543.69C287.887 540.376 290.573 537.69 293.887 537.69H331.887C335.2 537.69 337.887 540.376 337.887 543.69C337.887 547.003 335.2 549.69 331.887 549.69H293.887C290.573 549.69 287.887 547.003 287.887 543.69Z" fill="#DBEAFE"/>
<path d="M345.887 543.69C345.887 540.376 348.573 537.69 351.887 537.69H419.887C423.2 537.69 425.887 540.376 425.887 543.69C425.887 547.003 423.2 549.69 419.887 549.69H351.887C348.573 549.69 345.887 547.003 345.887 543.69Z" fill="#CCFBF1"/>
<path d="M433.887 543.69C433.887 540.376 436.573 537.69 439.887 537.69H492.887C496.2 537.69 498.887 540.376 498.887 543.69C498.887 547.003 496.2 549.69 492.887 549.69H439.887C436.573 549.69 433.887 547.003 433.887 543.69Z" fill="#CFFAFE"/>
<path d="M89.3866 497.049C89.3866 493.735 92.0729 491.049 95.3866 491.049H287.267C290.58 491.049 293.267 493.735 293.267 497.049V516.129C293.267 519.443 290.58 522.129 287.267 522.129H95.3866C92.0729 522.129 89.3866 519.443 89.3866 516.129V497.049Z" fill="#E0E7FF"/>
<path d="M89.3866 450.408C89.3866 447.095 92.0729 444.408 95.3866 444.408H491.137C494.45 444.408 497.137 447.095 497.137 450.408V461.728C497.137 465.042 494.45 467.728 491.137 467.728H95.3866C92.0729 467.728 89.3866 465.042 89.3866 461.728V450.408Z" fill="#E2E8F0"/>
<path d="M89.3866 419.315C89.3866 416.001 92.0729 413.315 95.3866 413.315H520.267C523.58 413.315 526.267 416.001 526.267 419.315V430.635C526.267 433.948 523.58 436.635 520.267 436.635H95.3866C92.0729 436.635 89.3866 433.948 89.3866 430.635V419.315Z" fill="#E2E8F0"/>
<path d="M89.3866 388.221C89.3866 384.907 92.0729 382.221 95.3866 382.221H549.387C552.7 382.221 555.387 384.907 555.387 388.221V399.541C555.387 402.855 552.7 405.541 549.387 405.541H95.3866C92.0729 405.541 89.3866 402.855 89.3866 399.541V388.221Z" fill="#E2E8F0"/>
<path d="M89.3866 341.58C89.3866 338.267 92.0729 335.58 95.3866 335.58H287.267C290.58 335.58 293.267 338.267 293.267 341.58V360.66C293.267 363.974 290.58 366.66 287.267 366.66H95.3866C92.0729 366.66 89.3866 363.974 89.3866 360.66V341.58Z" fill="#E0E7FF"/>
<path d="M89.3866 294.94C89.3866 291.626 92.0729 288.94 95.3866 288.94H491.137C494.45 288.94 497.137 291.626 497.137 294.94V306.26C497.137 309.573 494.45 312.26 491.137 312.26H95.3866C92.0729 312.26 89.3866 309.573 89.3866 306.26V294.94Z" fill="#E2E8F0"/>
<path d="M89.3866 263.846C89.3866 260.532 92.0729 257.846 95.3866 257.846H432.887C436.2 257.846 438.887 260.532 438.887 263.846V275.166C438.887 278.48 436.2 281.166 432.887 281.166H95.3866C92.0729 281.166 89.3866 278.48 89.3866 275.166V263.846Z" fill="#E2E8F0"/>
<path d="M89.3866 217.205C89.3866 213.892 92.0729 211.205 95.3866 211.205H549.387C552.7 211.205 555.387 213.892 555.387 217.205V236.285C555.387 239.599 552.7 242.285 549.387 242.285H95.3866C92.0729 242.285 89.3866 239.599 89.3866 236.285V217.205Z" fill="#E2E8F0"/>
<rect width="582.5" height="46.64" transform="translate(57.3866 55.7522)" fill="#4F46E5"/>
<path d="M89.3866 83.7522C89.3866 81.5431 91.1775 79.7522 93.3866 79.7522H376.637C378.846 79.7522 380.637 81.5431 380.637 83.7522V99.0722C380.637 101.281 378.846 103.072 376.637 103.072H93.3866C91.1775 103.072 89.3866 101.281 89.3866 99.0722V83.7522Z" fill="white" fill-opacity="0.9"/>
<path d="M89.3866 157.041C89.3866 152.623 92.9683 149.041 97.3866 149.041H256.137C260.555 149.041 264.137 152.623 264.137 157.041V172.361H89.3866V157.041Z" fill="white" fill-opacity="0.8"/>
</g>
<g filter="url(#filter1_dd_2_477)">
<g clip-path="url(#clip0_2_477)">
<path d="M5.48671 599.915C4.57332 593.416 9.10141 587.407 15.6005 586.494L221.337 557.579C227.836 556.666 233.845 561.194 234.758 567.693L274.411 849.84C275.325 856.339 270.797 862.348 264.298 863.262L58.5613 892.176C52.0622 893.089 46.0533 888.561 45.1399 882.062L5.48671 599.915Z" fill="white"/>
<path d="M27.4676 692.279C27.1631 690.113 28.6725 688.11 30.8388 687.805L181.709 666.602C183.875 666.297 185.878 667.807 186.183 669.973C186.487 672.139 184.978 674.142 182.811 674.447L31.9414 695.65C29.775 695.955 27.7721 694.445 27.4676 692.279Z" fill="#E2E8F0"/>
<path d="M25.8138 680.511C25.5093 678.345 27.0187 676.342 29.185 676.038L190.626 653.349C192.793 653.044 194.796 654.553 195.1 656.72C195.405 658.886 193.895 660.889 191.729 661.194L30.2876 683.883C28.1212 684.187 26.1182 682.678 25.8138 680.511Z" fill="#E2E8F0"/>
<path d="M24.16 668.744C23.8555 666.577 25.3649 664.575 27.5312 664.27L125.496 650.502C127.663 650.198 129.666 651.707 129.97 653.873C130.275 656.04 128.765 658.043 126.599 658.347L28.6338 672.115C26.4674 672.42 24.4644 670.91 24.16 668.744Z" fill="#FCE7F3"/>
<path d="M21.4036 649.131C21.0991 646.965 22.6085 644.962 24.7748 644.657L165.054 624.942C167.22 624.638 169.223 626.147 169.528 628.314C169.832 630.48 168.323 632.483 166.157 632.788L25.8774 652.502C23.711 652.807 21.708 651.298 21.4036 649.131Z" fill="#E2E8F0"/>
<path d="M19.7498 637.364C19.4453 635.197 20.9547 633.194 23.121 632.89L184.562 610.201C186.729 609.896 188.732 611.406 189.036 613.572C189.341 615.738 187.831 617.741 185.665 618.046L24.2236 640.735C22.0572 641.039 20.0542 639.53 19.7498 637.364Z" fill="#E2E8F0"/>
<path d="M224.175 842.399L259.664 837.411C261.56 837.145 263.312 838.466 263.578 840.361L264.957 850.167C265.223 852.063 263.903 853.816 262.007 854.083L226.518 859.07C224.622 859.337 222.87 858.015 222.603 856.12L221.225 846.314C220.959 844.418 222.279 842.666 224.175 842.399Z" fill="#FDF2F8"/>
<path d="M224.175 842.399L259.664 837.411C261.56 837.145 263.312 838.466 263.578 840.361L264.957 850.167C265.223 852.063 263.903 853.816 262.007 854.083L226.518 859.07C224.622 859.337 222.87 858.015 222.603 856.12L221.225 846.314C220.959 844.418 222.279 842.666 224.175 842.399Z" stroke="#FBCFE8" stroke-width="0.990268"/>
<path d="M228.377 848.204L228.291 847.591L232.57 846.99L232.656 847.602L230.862 847.855L231.578 852.947L230.887 853.044L230.171 847.952L228.377 848.204ZM235.04 852.563C234.769 852.601 234.516 852.585 234.28 852.513C234.045 852.44 233.848 852.316 233.691 852.139C233.533 851.96 233.435 851.732 233.396 851.453C233.361 851.208 233.381 851.002 233.457 850.837C233.532 850.669 233.644 850.53 233.793 850.42C233.942 850.31 234.111 850.22 234.3 850.15C234.491 850.078 234.684 850.014 234.879 849.961C235.134 849.891 235.342 849.836 235.501 849.796C235.662 849.755 235.776 849.708 235.844 849.654C235.915 849.601 235.942 849.521 235.927 849.415L235.924 849.393C235.886 849.118 235.78 848.915 235.609 848.784C235.439 848.653 235.202 848.608 234.899 848.651C234.586 848.695 234.349 848.798 234.19 848.961C234.031 849.123 233.926 849.288 233.876 849.454L233.221 849.319C233.295 849.043 233.416 848.82 233.581 848.649C233.748 848.476 233.938 848.345 234.151 848.256C234.365 848.165 234.58 848.105 234.796 848.075C234.933 848.055 235.093 848.05 235.276 848.058C235.461 848.064 235.644 848.106 235.825 848.183C236.008 848.259 236.17 848.391 236.31 848.578C236.45 848.764 236.543 849.028 236.591 849.368L236.987 852.187L236.33 852.279L236.248 851.7L236.215 851.705C236.183 851.804 236.123 851.914 236.034 852.034C235.945 852.154 235.819 852.264 235.657 852.363C235.495 852.461 235.289 852.528 235.04 852.563ZM235.057 851.958C235.317 851.922 235.529 851.84 235.693 851.713C235.859 851.585 235.976 851.434 236.045 851.26C236.115 851.085 236.137 850.909 236.112 850.73L236.028 850.129C236.004 850.166 235.947 850.205 235.857 850.246C235.767 850.285 235.663 850.324 235.543 850.361C235.425 850.397 235.31 850.43 235.197 850.461C235.085 850.49 234.995 850.514 234.925 850.534C234.758 850.58 234.603 850.639 234.462 850.71C234.322 850.778 234.213 850.869 234.136 850.98C234.06 851.089 234.034 851.227 234.058 851.394C234.09 851.623 234.199 851.783 234.384 851.877C234.571 851.968 234.796 851.995 235.057 851.958ZM238.187 852.018L237.586 847.739L238.243 847.647L238.845 851.926L238.187 852.018ZM237.82 846.979C237.692 846.997 237.575 846.969 237.47 846.895C237.367 846.82 237.307 846.722 237.289 846.599C237.272 846.476 237.303 846.365 237.382 846.265C237.462 846.165 237.567 846.106 237.695 846.088C237.823 846.07 237.939 846.098 238.042 846.172C238.147 846.247 238.208 846.345 238.225 846.467C238.243 846.59 238.211 846.702 238.13 846.802C238.052 846.902 237.948 846.961 237.82 846.979ZM239.905 845.959L240.707 851.664L240.049 851.757L239.247 846.051L239.905 845.959ZM243.662 851.34C243.275 851.394 242.923 851.35 242.606 851.207C242.29 851.064 242.028 850.838 241.818 850.531C241.61 850.223 241.475 849.848 241.413 849.406C241.35 848.96 241.376 848.56 241.491 848.205C241.608 847.849 241.798 847.559 242.062 847.335C242.328 847.11 242.654 846.97 243.04 846.916C243.426 846.862 243.777 846.906 244.093 847.049C244.41 847.192 244.673 847.418 244.881 847.728C245.091 848.038 245.228 848.415 245.291 848.861C245.353 849.303 245.325 849.701 245.208 850.054C245.093 850.408 244.903 850.697 244.637 850.922C244.373 851.146 244.048 851.286 243.662 851.34ZM243.579 850.749C243.872 850.708 244.103 850.599 244.271 850.422C244.44 850.245 244.552 850.027 244.609 849.769C244.665 849.511 244.673 849.239 244.633 848.953C244.593 848.667 244.51 848.407 244.384 848.173C244.258 847.939 244.09 847.759 243.879 847.633C243.668 847.507 243.416 847.465 243.123 847.506C242.829 847.548 242.599 847.658 242.431 847.837C242.263 848.016 242.15 848.235 242.094 848.495C242.038 848.755 242.03 849.028 242.07 849.314C242.11 849.6 242.193 849.859 242.319 850.091C242.444 850.323 242.612 850.502 242.823 850.625C243.033 850.749 243.285 850.79 243.579 850.749ZM246.592 850.837L245.99 846.558L246.625 846.469L246.716 847.115L246.761 847.109C246.809 846.886 246.926 846.695 247.112 846.534C247.298 846.373 247.519 846.275 247.775 846.239C247.823 846.232 247.884 846.225 247.956 846.216C248.029 846.208 248.084 846.203 248.122 846.202L248.216 846.87C248.193 846.868 248.141 846.867 248.059 846.867C247.979 846.865 247.896 846.87 247.809 846.882C247.601 846.911 247.421 846.981 247.27 847.091C247.12 847.199 247.009 847.336 246.935 847.502C246.864 847.665 246.841 847.844 246.869 848.037L247.249 850.745L246.592 850.837ZM251.187 850.282C250.775 850.34 250.406 850.299 250.082 850.159C249.759 850.017 249.493 849.793 249.285 849.487C249.079 849.179 248.945 848.806 248.884 848.367C248.822 847.929 248.848 847.531 248.96 847.175C249.075 846.816 249.263 846.522 249.524 846.294C249.787 846.064 250.112 845.922 250.498 845.868C250.721 845.836 250.947 845.843 251.174 845.886C251.402 845.93 251.617 846.023 251.819 846.165C252.02 846.305 252.193 846.504 252.337 846.763C252.481 847.021 252.582 847.349 252.638 847.749L252.677 848.027L249.378 848.491L249.299 847.923L251.928 847.553C251.895 847.312 251.816 847.103 251.693 846.927C251.571 846.751 251.415 846.62 251.223 846.536C251.033 846.451 250.819 846.425 250.581 846.458C250.32 846.495 250.102 846.592 249.929 846.749C249.758 846.904 249.635 847.091 249.562 847.312C249.489 847.532 249.469 847.76 249.502 847.996L249.555 848.375C249.601 848.698 249.695 848.964 249.838 849.174C249.983 849.38 250.163 849.528 250.38 849.617C250.597 849.704 250.838 849.729 251.104 849.692C251.277 849.667 251.429 849.621 251.562 849.553C251.696 849.483 251.807 849.392 251.895 849.279C251.984 849.165 252.045 849.029 252.08 848.873L252.74 848.962C252.703 849.187 252.618 849.392 252.483 849.577C252.348 849.761 252.17 849.915 251.951 850.038C251.731 850.16 251.477 850.242 251.187 850.282ZM255.575 849.666C255.218 849.716 254.891 849.67 254.592 849.528C254.294 849.384 254.044 849.158 253.844 848.849C253.643 848.538 253.51 848.156 253.447 847.703C253.384 847.254 253.406 846.853 253.513 846.501C253.621 846.148 253.8 845.863 254.049 845.644C254.299 845.425 254.604 845.291 254.964 845.24C255.243 845.201 255.469 845.216 255.644 845.287C255.82 845.355 255.959 845.441 256.061 845.546C256.165 845.649 256.246 845.734 256.304 845.802L256.36 845.794L256.064 843.688L256.722 843.595L257.523 849.301L256.888 849.39L256.796 848.733L256.718 848.744C256.681 848.828 256.626 848.936 256.553 849.068C256.481 849.197 256.368 849.32 256.216 849.436C256.063 849.551 255.85 849.627 255.575 849.666ZM255.581 849.062C255.845 849.025 256.058 848.925 256.221 848.762C256.383 848.597 256.494 848.386 256.555 848.127C256.615 847.867 256.622 847.575 256.576 847.252C256.532 846.933 256.446 846.66 256.319 846.433C256.193 846.205 256.029 846.036 255.828 845.928C255.627 845.818 255.393 845.782 255.125 845.82C254.847 845.859 254.624 845.963 254.459 846.132C254.295 846.299 254.183 846.511 254.125 846.767C254.068 847.021 254.06 847.299 254.103 847.6C254.145 847.904 254.231 848.175 254.359 848.41C254.488 848.644 254.655 848.821 254.859 848.942C255.066 849.061 255.306 849.101 255.581 849.062Z" fill="#BE185D"/>
<rect width="229.544" height="30.6686" transform="translate(4.95135 588.99) rotate(-8)" fill="#DB2777"/>
<path d="M14.4502 599.655C14.1457 597.489 15.6551 595.486 17.8214 595.182L100.9 583.506C103.067 583.201 105.07 584.71 105.374 586.877L106.407 594.222C106.711 596.388 105.202 598.391 103.035 598.696L19.9563 610.372C17.7899 610.676 15.7869 609.167 15.4825 607L14.4502 599.655Z" fill="white" fill-opacity="0.8"/>
</g>
<path d="M15.669 586.984L221.406 558.07C227.634 557.194 233.392 561.534 234.268 567.762L273.921 849.909C274.796 856.137 270.457 861.896 264.229 862.771L58.492 891.686C52.2639 892.561 46.5054 888.221 45.6301 881.993L5.97695 599.846C5.10188 593.618 9.44105 587.86 15.669 586.984Z" stroke="#E5E7EB" stroke-width="0.990268"/>
</g>
<g filter="url(#filter2_dd_2_477)">
<g clip-path="url(#clip1_2_477)">
<path d="M452.265 11.7675C453.178 5.2685 459.187 0.740442 465.686 1.65382L671.423 30.5682C677.922 31.4815 682.45 37.4905 681.536 43.9896L641.883 326.137C640.97 332.636 634.961 337.164 628.462 336.25L422.725 307.336C416.226 306.423 411.698 300.414 412.612 293.915L452.265 11.7675Z" fill="white"/>
<path d="M447.935 106.612C448.24 104.446 450.243 102.937 452.409 103.241L603.279 124.444C605.446 124.749 606.955 126.752 606.651 128.918C606.346 131.085 604.343 132.594 602.177 132.289L451.307 111.086C449.14 110.782 447.631 108.779 447.935 106.612Z" fill="#E2E8F0"/>
<path d="M449.589 94.8446C449.894 92.6783 451.897 91.1689 454.063 91.4734L615.504 114.162C617.671 114.467 619.18 116.47 618.876 118.636C618.571 120.803 616.568 122.312 614.402 122.008L452.96 99.3184C450.794 99.014 449.285 97.011 449.589 94.8446Z" fill="#E2E8F0"/>
<path d="M451.243 83.0771C451.547 80.9107 453.55 79.4014 455.717 79.7058L553.682 93.4739C555.848 93.7784 557.358 95.7814 557.053 97.9477C556.749 100.114 554.746 101.623 552.579 101.319L454.614 87.5509C452.448 87.2464 450.939 85.2434 451.243 83.0771Z" fill="#CCFBF1"/>
<path d="M453.999 63.4645C454.304 61.2981 456.307 59.7887 458.473 60.0932L598.752 79.8082C600.919 80.1126 602.428 82.1156 602.124 84.282C601.819 86.4483 599.816 87.9577 597.65 87.6532L457.371 67.9383C455.204 67.6338 453.695 65.6308 453.999 63.4645Z" fill="#E2E8F0"/>
<path d="M455.653 51.6969C455.958 49.5305 457.961 48.0212 460.127 48.3256L621.568 71.0147C623.735 71.3192 625.244 73.3222 624.939 75.4885C624.635 77.6549 622.632 79.1642 620.466 78.8597L459.024 56.1707C456.858 55.8662 455.349 53.8632 455.653 51.6969Z" fill="#E2E8F0"/>
<path d="M589.699 304.301L631.13 310.124C633.026 310.391 634.346 312.143 634.08 314.039L632.702 323.845C632.436 325.74 630.683 327.062 628.787 326.795L587.356 320.972C585.46 320.706 584.14 318.953 584.406 317.057L585.784 307.251C586.051 305.356 587.803 304.035 589.699 304.301Z" fill="#F0FDFA"/>
<path d="M589.699 304.301L631.13 310.124C633.026 310.391 634.346 312.143 634.08 314.039L632.702 323.845C632.436 325.74 630.683 327.062 628.787 326.795L587.356 320.972C585.46 320.706 584.14 318.953 584.406 317.057L585.784 307.251C586.051 305.356 587.803 304.035 589.699 304.301Z" stroke="#99F6E4" stroke-width="0.990268"/>
<path d="M592.138 311.039L592.224 310.427L596.504 311.028L596.417 311.641L594.623 311.389L593.908 316.481L593.217 316.384L593.932 311.292L592.138 311.039ZM597.84 317.125C597.428 317.067 597.085 316.926 596.811 316.702C596.54 316.476 596.347 316.188 596.231 315.836C596.118 315.483 596.092 315.088 596.154 314.649C596.215 314.211 596.349 313.836 596.556 313.524C596.765 313.211 597.027 312.98 597.341 312.833C597.657 312.684 598.008 312.637 598.395 312.691C598.618 312.723 598.833 312.791 599.039 312.896C599.246 313.001 599.427 313.149 599.582 313.341C599.737 313.532 599.848 313.771 599.916 314.059C599.983 314.347 599.989 314.69 599.933 315.089L599.894 315.368L596.595 314.904L596.675 314.336L599.305 314.706C599.339 314.464 599.321 314.242 599.251 314.039C599.183 313.836 599.068 313.668 598.907 313.533C598.748 313.399 598.549 313.316 598.312 313.282C598.05 313.245 597.814 313.278 597.605 313.382C597.397 313.483 597.228 313.63 597.097 313.822C596.966 314.013 596.883 314.227 596.85 314.463L596.797 314.842C596.752 315.165 596.769 315.447 596.849 315.687C596.931 315.926 597.064 316.118 597.248 316.263C597.432 316.407 597.657 316.497 597.923 316.534C598.096 316.559 598.255 316.556 598.401 316.528C598.549 316.497 598.681 316.44 598.797 316.356C598.914 316.27 599.01 316.157 599.087 316.016L599.697 316.284C599.6 316.49 599.461 316.663 599.28 316.805C599.099 316.944 598.886 317.043 598.642 317.101C598.397 317.158 598.13 317.166 597.84 317.125ZM602.35 317.759C601.949 317.702 601.617 317.559 601.354 317.329C601.091 317.099 600.905 316.807 600.795 316.452C600.686 316.098 600.661 315.707 600.721 315.28C600.782 314.845 600.916 314.473 601.123 314.163C601.331 313.851 601.593 313.622 601.907 313.475C602.223 313.326 602.575 313.279 602.961 313.333C603.262 313.375 603.525 313.469 603.751 313.615C603.977 313.76 604.152 313.944 604.278 314.166C604.404 314.388 604.467 314.636 604.467 314.908L603.809 314.816C603.787 314.614 603.699 314.426 603.548 314.251C603.398 314.075 603.179 313.966 602.889 313.925C602.633 313.889 602.399 313.925 602.187 314.031C601.977 314.136 601.801 314.302 601.659 314.528C601.52 314.753 601.427 315.027 601.382 315.35C601.335 315.681 601.347 315.976 601.417 316.235C601.488 316.496 601.61 316.707 601.782 316.869C601.956 317.032 602.173 317.132 602.433 317.168C602.604 317.192 602.763 317.184 602.911 317.144C603.059 317.105 603.189 317.036 603.301 316.938C603.413 316.84 603.501 316.716 603.563 316.566L604.221 316.658C604.148 316.905 604.024 317.12 603.849 317.302C603.676 317.482 603.461 317.615 603.205 317.7C602.951 317.784 602.666 317.803 602.35 317.759ZM606.026 315.559L605.664 318.134L605.007 318.041L605.808 312.336L606.466 312.428L606.171 314.523L606.227 314.531C606.359 314.324 606.534 314.17 606.752 314.068C606.973 313.964 607.252 313.936 607.588 313.984C607.88 314.025 608.127 314.119 608.33 314.267C608.533 314.413 608.678 314.614 608.765 314.87C608.854 315.125 608.873 315.437 608.821 315.805L608.439 318.524L607.781 318.431L608.157 315.757C608.205 315.417 608.154 315.142 608.003 314.931C607.855 314.719 607.626 314.591 607.316 314.548C607.1 314.517 606.901 314.536 606.717 314.603C606.535 314.67 606.383 314.784 606.26 314.945C606.139 315.106 606.061 315.311 606.026 315.559ZM610.661 316.211L610.299 318.785L609.642 318.693L610.243 314.413L610.878 314.503L610.784 315.171L610.84 315.179C610.971 314.976 611.148 314.823 611.37 314.72C611.593 314.615 611.867 314.585 612.19 314.63C612.479 314.671 612.725 314.766 612.925 314.915C613.126 315.063 613.27 315.265 613.357 315.522C613.444 315.776 613.462 316.086 613.411 316.45L613.029 319.169L612.372 319.076L612.748 316.402C612.795 316.066 612.744 315.792 612.596 315.579C612.448 315.365 612.222 315.237 611.917 315.194C611.707 315.165 611.513 315.184 611.335 315.252C611.159 315.32 611.011 315.434 610.892 315.596C610.773 315.757 610.696 315.962 610.661 316.211ZM614.231 319.338L614.832 315.058L615.489 315.151L614.888 319.43L614.231 319.338ZM615.267 314.392C615.138 314.374 615.034 314.315 614.953 314.215C614.875 314.115 614.844 314.003 614.861 313.881C614.878 313.758 614.939 313.66 615.042 313.585C615.147 313.511 615.264 313.483 615.392 313.501C615.52 313.519 615.623 313.578 615.702 313.678C615.783 313.778 615.814 313.89 615.797 314.012C615.78 314.135 615.719 314.233 615.614 314.307C615.51 314.382 615.395 314.41 615.267 314.392ZM617.818 319.933C617.417 319.876 617.085 319.733 616.822 319.503C616.559 319.273 616.372 318.98 616.263 318.626C616.154 318.272 616.129 317.881 616.189 317.454C616.25 317.019 616.384 316.647 616.591 316.337C616.799 316.025 617.061 315.796 617.375 315.649C617.691 315.5 618.042 315.453 618.429 315.507C618.73 315.549 618.993 315.643 619.219 315.789C619.445 315.934 619.62 316.118 619.746 316.34C619.872 316.562 619.935 316.81 619.935 317.082L619.277 316.99C619.254 316.788 619.167 316.6 619.016 316.425C618.866 316.248 618.647 316.14 618.357 316.099C618.101 316.063 617.866 316.099 617.655 316.205C617.445 316.31 617.269 316.476 617.127 316.702C616.988 316.927 616.895 317.201 616.85 317.524C616.803 317.854 616.815 318.15 616.884 318.409C616.956 318.669 617.078 318.881 617.25 319.043C617.424 319.206 617.641 319.305 617.901 319.342C618.072 319.366 618.231 319.358 618.379 319.318C618.527 319.278 618.657 319.21 618.769 319.112C618.881 319.014 618.968 318.89 619.031 318.739L619.689 318.832C619.616 319.079 619.492 319.294 619.317 319.476C619.144 319.656 618.929 319.789 618.673 319.874C618.419 319.957 618.134 319.977 617.818 319.933ZM621.72 320.492C621.448 320.454 621.21 320.369 621.003 320.235C620.796 320.1 620.642 319.926 620.539 319.713C620.437 319.498 620.405 319.251 620.445 318.972C620.479 318.727 620.555 318.535 620.673 318.396C620.791 318.256 620.938 318.153 621.111 318.089C621.285 318.024 621.473 317.984 621.674 317.969C621.877 317.952 622.08 317.944 622.282 317.946C622.547 317.949 622.761 317.954 622.925 317.96C623.091 317.964 623.214 317.95 623.294 317.918C623.377 317.886 623.425 317.817 623.44 317.711L623.443 317.689C623.482 317.414 623.437 317.19 623.308 317.017C623.18 316.843 622.965 316.736 622.663 316.693C622.349 316.649 622.093 316.683 621.895 316.795C621.698 316.908 621.552 317.037 621.457 317.183L620.865 316.872C621.013 316.628 621.19 316.446 621.396 316.327C621.604 316.207 621.823 316.134 622.052 316.107C622.283 316.079 622.506 316.08 622.722 316.11C622.859 316.13 623.015 316.169 623.188 316.227C623.364 316.284 623.528 316.374 623.682 316.498C623.836 316.622 623.955 316.793 624.038 317.011C624.121 317.229 624.139 317.508 624.091 317.848L623.695 320.668L623.037 320.575L623.119 319.996L623.085 319.991C623.028 320.078 622.94 320.167 622.821 320.258C622.702 320.349 622.551 320.42 622.368 320.47C622.184 320.52 621.968 320.527 621.72 320.492ZM621.903 319.916C622.163 319.952 622.389 319.932 622.582 319.855C622.776 319.778 622.931 319.665 623.044 319.517C623.16 319.368 623.23 319.205 623.255 319.026L623.34 318.425C623.307 318.454 623.242 318.476 623.143 318.491C623.046 318.504 622.935 318.512 622.81 318.515C622.687 318.516 622.566 318.517 622.449 318.515C622.334 318.512 622.241 318.511 622.169 318.51C621.995 318.508 621.83 318.522 621.674 318.551C621.521 318.579 621.392 318.636 621.287 318.721C621.184 318.805 621.121 318.931 621.097 319.098C621.065 319.326 621.125 319.511 621.278 319.652C621.433 319.791 621.641 319.879 621.903 319.916ZM626.354 315.223L625.552 320.929L624.895 320.836L625.697 315.131L626.354 315.223Z" fill="#0F766E"/>
<rect width="229.544" height="30.6686" transform="translate(454.761 1.11844) rotate(8)" fill="#0D9488"/>
<path d="M460.953 13.9886C461.257 11.8222 463.26 10.3129 465.427 10.6173L548.506 22.2933C550.672 22.5978 552.181 24.6008 551.877 26.7671L550.845 34.112C550.54 36.2784 548.537 37.7877 546.371 37.4833L463.292 25.8073C461.125 25.5028 459.616 23.4998 459.92 21.3335L460.953 13.9886Z" fill="white" fill-opacity="0.8"/>
</g>
<path d="M465.617 2.14407L671.354 31.0585C677.582 31.9339 681.921 37.6922 681.046 43.9202L641.393 326.067C640.517 332.296 634.759 336.636 628.531 335.76L422.794 306.846C416.566 305.97 412.227 300.211 413.102 293.983L452.755 11.8361C453.631 5.60816 459.389 1.269 465.617 2.14407Z" stroke="#E5E7EB" stroke-width="0.990268"/>
</g>
<defs>
<filter id="filter0_dd_2_477" x="51.3866" y="53.7522" width="594.5" height="789.33" filterUnits="userSpaceOnUse" color-interpolation-filters="sRGB">
<feFlood flood-opacity="0" result="BackgroundImageFix"/>
<feColorMatrix in="SourceAlpha" type="matrix" values="0 0 0 0 0 0 0 0 0 0 0 0 0 0 0 0 0 0 127 0" result="hardAlpha"/>
<feMorphology radius="1" operator="erode" in="SourceAlpha" result="effect1_dropShadow_2_477"/>
<feOffset dy="4"/>
<feGaussianBlur stdDeviation="3"/>
<feComposite in2="hardAlpha" operator="out"/>
<feColorMatrix type="matrix" values="0 0 0 0 0 0 0 0 0 0 0 0 0 0 0 0 0 0 0.1 0"/>
<feBlend mode="normal" in2="BackgroundImageFix" result="effect1_dropShadow_2_477"/>
<feColorMatrix in="SourceAlpha" type="matrix" values="0 0 0 0 0 0 0 0 0 0 0 0 0 0 0 0 0 0 127 0" result="hardAlpha"/>
<feMorphology radius="2" operator="erode" in="SourceAlpha" result="effect2_dropShadow_2_477"/>
<feOffset dy="2"/>
<feGaussianBlur stdDeviation="2"/>
<feComposite in2="hardAlpha" operator="out"/>
<feColorMatrix type="matrix" values="0 0 0 0 0 0 0 0 0 0 0 0 0 0 0 0 0 0 0.1 0"/>
<feBlend mode="normal" in2="effect1_dropShadow_2_477" result="effect2_dropShadow_2_477"/>
<feBlend mode="normal" in="SourceGraphic" in2="effect2_dropShadow_2_477" result="shape"/>
</filter>
<filter id="filter1_dd_2_477" x="-1.11845" y="554.935" width="282.135" height="347.807" filterUnits="userSpaceOnUse" color-interpolation-filters="sRGB">
<feFlood flood-opacity="0" result="BackgroundImageFix"/>
<feColorMatrix in="SourceAlpha" type="matrix" values="0 0 0 0 0 0 0 0 0 0 0 0 0 0 0 0 0 0 127 0" result="hardAlpha"/>
<feMorphology radius="0.990268" operator="erode" in="SourceAlpha" result="effect1_dropShadow_2_477"/>
<feOffset dy="3.96107"/>
<feGaussianBlur stdDeviation="2.9708"/>
<feComposite in2="hardAlpha" operator="out"/>
<feColorMatrix type="matrix" values="0 0 0 0 0 0 0 0 0 0 0 0 0 0 0 0 0 0 0.1 0"/>
<feBlend mode="normal" in2="BackgroundImageFix" result="effect1_dropShadow_2_477"/>
<feColorMatrix in="SourceAlpha" type="matrix" values="0 0 0 0 0 0 0 0 0 0 0 0 0 0 0 0 0 0 127 0" result="hardAlpha"/>
<feMorphology radius="1.98054" operator="erode" in="SourceAlpha" result="effect2_dropShadow_2_477"/>
<feOffset dy="1.98054"/>
<feGaussianBlur stdDeviation="1.98054"/>
<feComposite in2="hardAlpha" operator="out"/>
<feColorMatrix type="matrix" values="0 0 0 0 0 0 0 0 0 0 0 0 0 0 0 0 0 0 0.1 0"/>
<feBlend mode="normal" in2="effect1_dropShadow_2_477" result="effect2_dropShadow_2_477"/>
<feBlend mode="normal" in="SourceGraphic" in2="effect2_dropShadow_2_477" result="shape"/>
</filter>
<filter id="filter2_dd_2_477" x="406.007" y="-0.990268" width="282.135" height="347.807" filterUnits="userSpaceOnUse" color-interpolation-filters="sRGB">
<feFlood flood-opacity="0" result="BackgroundImageFix"/>
<feColorMatrix in="SourceAlpha" type="matrix" values="0 0 0 0 0 0 0 0 0 0 0 0 0 0 0 0 0 0 127 0" result="hardAlpha"/>
<feMorphology radius="0.990268" operator="erode" in="SourceAlpha" result="effect1_dropShadow_2_477"/>
<feOffset dy="3.96107"/>
<feGaussianBlur stdDeviation="2.9708"/>
<feComposite in2="hardAlpha" operator="out"/>
<feColorMatrix type="matrix" values="0 0 0 0 0 0 0 0 0 0 0 0 0 0 0 0 0 0 0.1 0"/>
<feBlend mode="normal" in2="BackgroundImageFix" result="effect1_dropShadow_2_477"/>
<feColorMatrix in="SourceAlpha" type="matrix" values="0 0 0 0 0 0 0 0 0 0 0 0 0 0 0 0 0 0 127 0" result="hardAlpha"/>
<feMorphology radius="1.98054" operator="erode" in="SourceAlpha" result="effect2_dropShadow_2_477"/>
<feOffset dy="1.98054"/>
<feGaussianBlur stdDeviation="1.98054"/>
<feComposite in2="hardAlpha" operator="out"/>
<feColorMatrix type="matrix" values="0 0 0 0 0 0 0 0 0 0 0 0 0 0 0 0 0 0 0.1 0"/>
<feBlend mode="normal" in2="effect1_dropShadow_2_477" result="effect2_dropShadow_2_477"/>
<feBlend mode="normal" in="SourceGraphic" in2="effect2_dropShadow_2_477" result="shape"/>
</filter>
<clipPath id="clip0_2_477">
<path d="M5.48671 599.915C4.57332 593.416 9.10141 587.407 15.6005 586.494L221.337 557.579C227.836 556.666 233.845 561.194 234.758 567.693L274.411 849.84C275.325 856.339 270.797 862.348 264.298 863.262L58.5613 892.176C52.0622 893.089 46.0533 888.561 45.1399 882.062L5.48671 599.915Z" fill="white"/>
</clipPath>
<clipPath id="clip1_2_477">
<path d="M452.265 11.7675C453.178 5.2685 459.187 0.740442 465.686 1.65382L671.423 30.5682C677.922 31.4815 682.45 37.4905 681.536 43.9896L641.883 326.137C640.97 332.636 634.961 337.164 628.462 336.25L422.725 307.336C416.226 306.423 411.698 300.414 412.612 293.915L452.265 11.7675Z" fill="white"/>
</clipPath>
</defs>
</svg>
